<svg id="Layer_35" enable-background="new 0 0 64 64" height="512" viewBox="0 0 64 64" width="512" xmlns="http://www.w3.org/2000/svg"><path d="m56 32h6v30h-6z" fill="#e6e9ed"/><path d="m50 32h6v30h-6z" fill="#b4dd7f"/><path d="m50 32v30h-10v-18h4v-12z" fill="#ccd1d9"/><path d="m18 32h22v12 18h-38v-30h4z" fill="#ffeaa7"/><path d="m17 47 7.78 7.78c-1.99 1.99-4.74 3.22-7.78 3.22-6.08 0-11-4.92-11-11z" fill="#3bafda"/><path d="m17 36c6.08 0 11 4.92 11 11 0 3.04-1.23 5.79-3.22 7.78l-7.78-7.78z" fill="#e6e9ed"/><path d="m17 36v11h-11c0-6.08 4.92-11 11-11z" fill="#ff826e"/><path d="m44 14h-38v18h34v12h4z" fill="#e6e9ed"/><path d="m37 18-3.96 3.96c-.67.67-1.04 1.57-1.04 2.5 0 .98.4 1.86 1.04 2.5.63.63 1.48 1.02 2.44 1.04h-13.48v-10z" fill="#b4dd7f"/><path d="m52 2h4v18h-4z" fill="#e6e9ed"/><path d="m58.4 2h3.6v18h-3.6-2.4v-2-14-2z" fill="#fcd770"/><path d="m39 14h-21l6.48-6.48c2.26-2.26 5.31-3.52 8.49-3.52h19.03v14h-3.34c-1.06 0-2.08.42-2.83 1.17l-1.83 1.83-5.96 5.96c-.67.67-1.57 1.04-2.5 1.04-.02 0-.04 0-.06 0-.96-.02-1.81-.41-2.44-1.04-.64-.64-1.04-1.52-1.04-2.5 0-.93.37-1.83 1.04-2.5l3.96-3.96.83-.83c.75-.75 1.17-1.77 1.17-2.83z" fill="#f0d0b4"/><path d="m63 21v-20h-12v2.003l-18.029-.003s-.001 0-.002 0c-3.472 0-6.736 1.352-9.191 3.808l-6.192 6.192h-12.586v18h-4v32h39 1 22v-32h-18v-9.586l1.536-1.536c.558-.558 1.331-.878 2.121-.878h2.343v2zm-10-18h2v2h2v-2h4v16h-4v-12h-2v12h-2zm-14 58h-36v-28h36zm12 0v-28h4v28zm10 0h-4v-28h4zm-12-28v28h-8v-16h4v-12zm-6 10h-2v-12h-34v-16h30.92c-.125.549-.397 1.063-.798 1.464l-.536.536h-15.586v12h14.483v-.005c.018 0 .035.005.053.005 1.211 0 2.351-.472 3.207-1.329l4.257-4.257zm-11.223-16h-8.777v-8h11.586l-2.257 2.257c-.857.857-1.329 1.996-1.329 3.207 0 .939.287 1.812.777 2.536zm16.88-10c-1.335 0-2.591.52-3.535 1.464l-7.793 7.793c-.479.479-1.116.743-1.793.743-1.398 0-2.536-1.138-2.536-2.536 0-.677.264-1.314.743-1.793l4.793-4.793c.944-.944 1.464-2.199 1.464-3.535v-3.343h-2v2h-17.586l4.778-4.778c2.078-2.077 4.84-3.222 7.777-3.222h.002l18.029.003v11.997z"/><path d="m9 17h2v2h-2z"/><path d="m9 21h2v2h-2z"/><path d="m9 25h2v2h-2z"/><path d="m13 17h2v12h-2z"/><path d="m17 17h2v12h-2z"/><path d="m17 59c6.617 0 12-5.383 12-12s-5.383-12-12-12-12 5.383-12 12 5.383 12 12 12zm-9.949-11h9.535l6.738 6.738c-1.724 1.412-3.926 2.262-6.324 2.262-5.177 0-9.446-3.954-9.949-9zm19.949-1c0 2.398-.85 4.6-2.262 6.324l-6.738-6.738v-9.535c5.046.503 9 4.772 9 9.949zm-11-9.949v8.949h-8.949c.47-4.717 4.232-8.479 8.949-8.949z"/><path d="m35 35h2v2h-2z"/><path d="m35 39h2v2h-2z"/><path d="m35 43h2v16h-2z"/><path d="m31 35h2v24h-2z"/></svg>